<svg width="91" height="91" viewBox="0 0 91 91" fill="none" xmlns="http://www.w3.org/2000/svg">
<rect x="1" y="1" width="89" height="89" rx="9" fill="url(#paint0_linear_25_146)" stroke="#EA9800" stroke-width="2"/>
<rect x="13.1222" y="12.1111" width="64.7556" height="66.7778" rx="8" stroke="white" stroke-width="4"/>
<rect x="23.2556" y="22.2444" width="8.08889" height="46.5111" rx="4.04444" fill="white"/>
<rect x="41" y="20" width="9" height="51" rx="4.5" fill="white"/>
<rect x="59" y="20" width="8" height="51" rx="4" fill="white"/>
<rect x="42" y="91" width="91" height="8" transform="rotate(-90 42 91)" fill="#CE4500"/>
<mask id="mask0_25_146" style="mask-type:alpha" maskUnits="userSpaceOnUse" x="0" y="0" width="42" height="91">
<rect y="91" width="91" height="42" transform="rotate(-90 0 91)" fill="#CE4500"/>
</mask>
<g mask="url(#mask0_25_146)">
<rect x="1" y="1" width="89" height="89" rx="9" fill="url(#paint1_linear_25_146)" stroke="#EA9800" stroke-width="2"/>
<rect x="12.1111" y="12.1111" width="66.7778" height="66.7778" rx="8" stroke="white" stroke-width="4"/>
<rect x="22.2222" y="20.2222" width="12.1333" height="12.1333" rx="6.06667" fill="white"/>
<rect x="22.2222" y="39.4333" width="12.1333" height="12.1333" rx="6.06667" fill="white"/>
<rect x="22.2222" y="58.6444" width="12.1333" height="12.1333" rx="6.06667" fill="white"/>
</g>
<defs>
<linearGradient id="paint0_linear_25_146" x1="45.5" y1="0" x2="45.5" y2="91" gradientUnits="userSpaceOnUse">
<stop stop-color="#FFC800"/>
<stop offset="1" stop-color="#FF9D00"/>
</linearGradient>
<linearGradient id="paint1_linear_25_146" x1="45.5" y1="0" x2="45.5" y2="91" gradientUnits="userSpaceOnUse">
<stop stop-color="#FFC800"/>
<stop offset="1" stop-color="#FF9D00"/>
</linearGradient>
</defs>
</svg>
