<svg width="91" height="91" viewBox="0 0 91 91" fill="none" xmlns="http://www.w3.org/2000/svg">
<rect x="1" y="1" width="89" height="89" rx="9" fill="url(#paint0_linear_17_36)" stroke="#EA9800" stroke-width="2"/>
<rect x="12.1111" y="12.1111" width="66.7778" height="66.7778" rx="8" stroke="white" stroke-width="4"/>
<rect x="20.2222" y="20.2222" width="12.1333" height="12.1333" rx="6.06667" fill="white"/>
<rect x="20.2222" y="39.4333" width="12.1333" height="12.1333" rx="6.06667" fill="white"/>
<rect x="20.2222" y="58.6444" width="12.1333" height="12.1333" rx="6.06667" fill="white"/>
<rect x="39.4333" y="20.2222" width="12.1333" height="12.1333" rx="6.06667" fill="white"/>
<rect x="39.4333" y="39.4333" width="12.1333" height="12.1333" rx="6.06667" fill="white"/>
<rect x="39.4333" y="58.6444" width="12.1333" height="12.1333" rx="6.06667" fill="white"/>
<rect x="58.6445" y="20.2222" width="12.1333" height="12.1333" rx="6.06667" fill="white"/>
<rect x="58.6445" y="39.4333" width="12.1333" height="12.1333" rx="6.06667" fill="white"/>
<rect x="58.6445" y="58.6444" width="12.1333" height="12.1333" rx="6.06667" fill="white"/>
<defs>
<linearGradient id="paint0_linear_17_36" x1="45.5" y1="0" x2="45.5" y2="91" gradientUnits="userSpaceOnUse">
<stop stop-color="#FFC800"/>
<stop offset="1" stop-color="#FF9D00"/>
</linearGradient>
</defs>
</svg>
